<svg width="1357" height="1357" viewBox="0 0 1357 1357" fill="none" xmlns="http://www.w3.org/2000/svg">
<g id="lingkaran">
<path id="Vector" opacity="0.14" d="M678.598 926.196C815.343 926.196 926.196 815.343 926.196 678.598C926.196 541.853 815.343 431 678.598 431C541.853 431 431 541.853 431 678.598C431 815.343 541.853 926.196 678.598 926.196Z" stroke="white" stroke-width="0.804"/>
<path id="Vector_2" opacity="0.14" d="M678.598 1158.2C943.473 1158.2 1158.2 943.473 1158.2 678.598C1158.2 413.723 943.473 199 678.598 199C413.723 199 199 413.723 199 678.598C199 943.473 413.723 1158.2 678.598 1158.2Z" stroke="white" stroke-width="0.804"/>
<path id="Vector_3" opacity="0.14" d="M678.598 1356.2C1052.83 1356.2 1356.2 1052.83 1356.2 678.598C1356.2 304.371 1052.83 1 678.598 1C304.371 1 1 304.371 1 678.598C1 1052.83 304.371 1356.2 678.598 1356.2Z" stroke="white" stroke-width="0.804"/>
</g>
</svg>
