<svg width="820" height="584" viewBox="0 0 820 584" fill="none" xmlns="http://www.w3.org/2000/svg">
<g id="undraw_security_on_re_e491 1" clip-path="url(#clip0_0_1)">
<path id="backs" d="M192.566 405.919C186.276 405.898 180.014 405.088 173.926 403.508L172.726 403.176L171.613 402.618C131.371 382.442 97.4211 355.791 70.7059 323.407C48.5914 296.442 31.3499 265.827 19.7568 232.937C5.89317 193.559 -0.776583 152.01 0.0659161 110.272C0.0829161 109.396 0.0973034 108.72 0.0973034 108.254C0.0973034 87.9645 11.3593 70.1623 28.7885 62.9C42.128 57.3419 163.244 7.59478 171.995 4.00041C188.475 -4.25731 206.057 2.63506 208.87 3.84035C215.181 6.4206 327.146 52.2153 351.341 63.7366C376.277 75.6107 382.93 96.9422 382.93 107.674C382.93 156.263 374.515 201.672 357.919 242.642C344.515 275.804 325.519 306.419 301.756 333.153C255.91 384.747 210.051 403.037 209.608 403.198C204.127 405.084 198.361 406.005 192.566 405.919ZM181.781 379.205C185.757 380.097 194.911 381.434 200.877 379.257C208.456 376.493 246.839 356.589 282.707 316.225C332.264 260.456 357.41 190.35 357.446 107.854C357.358 106.182 356.171 94.2618 340.385 86.745C316.659 75.4467 200.281 27.8601 199.108 27.3805L198.787 27.2442C196.348 26.2222 188.586 24.0695 183.236 26.8732L182.165 27.3726C180.868 27.9054 52.3017 80.7102 38.59 86.4233C28.9984 90.4198 25.5809 100.321 25.5809 108.254C25.5809 108.833 25.5659 109.677 25.5447 110.767C24.4488 167.214 37.511 306.113 181.781 379.205Z" fill="#3F3D56"/>
<g id="fronts">
<path id="Vector" d="M177.324 14.5861C177.324 14.5861 47.5894 67.8699 33.6892 73.6616C19.7891 79.4533 12.839 93.3534 12.839 107.254C12.839 121.154 2.41396 302.532 177.324 390.228C177.324 390.228 193.199 394.62 205.243 390.228C217.287 385.835 370.188 311.701 370.188 106.674C370.188 106.674 370.188 85.8242 345.863 74.2408C321.538 62.6574 203.929 14.5861 203.929 14.5861C203.929 14.5861 189.486 8.21519 177.324 14.5861Z" fill="#9191B5"/>
<path id="Vector_2" opacity="0.1" d="M191.224 57.2865V341.537C191.224 341.537 60.3312 278.53 61.4895 112.887L191.224 57.2865Z" fill="black"/>
</g>
<path id="checklist" d="M192.931 261.581L151.235 207.969L175.483 189.11L195.226 214.494L261.921 144.088L284.224 165.219L192.931 261.581Z" fill="white"/>
<g id="head">
<path id="Vector_3" d="M562.676 126.432C577.498 126.432 589.514 114.416 589.514 99.5939C589.514 84.7715 577.498 72.7556 562.676 72.7556C547.853 72.7556 535.837 84.7715 535.837 99.5939C535.837 114.416 547.853 126.432 562.676 126.432Z" fill="#FFB8B8"/>
<path id="Vector_4" d="M578.535 99.5939L573.655 98.374C573.655 98.374 569.995 77.6353 561.456 80.0751C552.916 82.515 530.958 84.9548 530.958 75.1954C530.958 65.436 551.696 56.8966 563.896 58.1165C576.095 59.3365 591.675 63.3835 595.614 81.295C601.927 110.008 582.587 117.26 582.587 117.26L582.909 116.215C583.803 113.312 583.867 110.217 583.094 107.28C582.321 104.343 580.741 101.681 578.535 99.5939Z" fill="#2F2E41"/>
</g>
<g id="body">
<path id="Vector_5" d="M547.206 568.237L562.671 568.236L570.029 508.583L547.203 508.584L547.206 568.237Z" fill="#FFB8B8"/>
<path id="Vector_6" d="M543.261 563.188L573.718 563.186H573.719C578.867 563.187 583.804 565.232 587.444 568.872C591.084 572.511 593.129 577.448 593.129 582.596V583.227L543.261 583.229L543.261 563.188Z" fill="#2F2E41"/>
<path id="Vector_7" d="M599.206 568.237L614.671 568.236L622.029 508.583L599.203 508.584L599.206 568.237Z" fill="#FFB8B8"/>
<path id="Vector_8" d="M595.261 563.188L625.718 563.186H625.719C630.867 563.187 635.804 565.232 639.444 568.872C643.084 572.511 645.129 577.448 645.129 582.596V583.227L595.261 583.229L595.261 563.188Z" fill="#2F2E41"/>
<path id="Vector_9" d="M571.514 358.75L575.224 548L545.213 546.139L524.393 425.597L517.817 343.408L571.514 358.75Z" fill="#2F2E41"/>
<path id="Vector_10" d="M623.018 326.971L627.224 551L592.224 550L584.664 416.83L571.514 368.613L517.818 343.409L526.584 283.137L605.485 282.041L623.018 326.971Z" fill="#2F2E41"/>
<path id="Vector_11" d="M511.338 161.499L502.572 160.403C502.572 160.403 500.38 161.499 499.284 169.17C498.188 176.841 485.038 244.783 485.038 244.783L502.572 328.067L522.297 301.767L510.243 255.741L522.297 209.716L511.338 161.499Z" fill="#2F2E41"/>
<path id="Vector_12" d="M624.114 160.404H630.689L647.127 249.166L631.785 318.204L616.443 293L620.826 265.604L618.635 241.496L610.964 227.249L624.114 160.404Z" fill="#2F2E41"/>
<path id="Vector_13" d="M584.936 137.738L589.047 143.966L600.006 174.649L591.239 294.095L539.734 295.192L533.16 158.211L546.933 140.995L584.936 137.738Z" fill="#CCCCCC"/>
<path id="Vector_14" d="M504.668 160.403L539.734 146.157L547.953 140.13L572.61 249.166L584.116 136.843L629.593 160.403L614.252 234.92L612.06 263.412L618.635 286.425C618.635 286.425 641.648 302.862 633.977 320.396C626.306 337.929 617.539 339.025 617.539 339.025C617.539 339.025 580.281 303.958 578.089 295.191C575.897 286.425 572.61 271.083 572.61 271.083C572.61 271.083 553.98 341.217 532.064 340.121C510.147 339.025 510.147 316.012 510.147 316.012L515.626 291.904L524.393 266.7L520.009 225.058L504.668 160.403Z" fill="#2F2E41"/>
</g>
</g>
<defs>
<clipPath id="clip0_0_1">
<rect width="819.07" height="584" fill="white"/>
</clipPath>
</defs>
</svg>
